<?xml version="1.0" encoding="UTF-8" standalone="no"?>
<svg
   xmlns:dc="http://purl.org/dc/elements/1.1/"
   xmlns:cc="http://creativecommons.org/ns#"
   xmlns:rdf="http://www.w3.org/1999/02/22-rdf-syntax-ns#"
   xmlns:svg="http://www.w3.org/2000/svg"
   xmlns="http://www.w3.org/2000/svg"
   xmlns:sodipodi="http://sodipodi.sourceforge.net/DTD/sodipodi-0.dtd"
   xmlns:inkscape="http://www.inkscape.org/namespaces/inkscape"
   viewBox="0 0 24 24"
   fill="black"
   width="215"
   height="150"
   version="1.1"
   id="svg26"
   sodipodi:docname="person_null.svg"
   inkscape:version="0.92.4 (5da689c313, 2019-01-14)">
  <metadata
     id="metadata32">
    <rdf:RDF>
      <cc:Work
         rdf:about="">
        <dc:format>image/svg+xml</dc:format>
        <dc:type
           rdf:resource="http://purl.org/dc/dcmitype/StillImage" />
      </cc:Work>
    </rdf:RDF>
  </metadata>
  <defs
     id="defs30" />
  <sodipodi:namedview
     pagecolor="#ffffff"
     bordercolor="#666666"
     borderopacity="1"
     objecttolerance="10"
     gridtolerance="10"
     guidetolerance="10"
     inkscape:pageopacity="0"
     inkscape:pageshadow="2"
     inkscape:window-width="2409"
     inkscape:window-height="1395"
     id="namedview28"
     showgrid="false"
     inkscape:zoom="5.4898985"
     inkscape:cx="103.53315"
     inkscape:cy="87.645249"
     inkscape:window-x="-13"
     inkscape:window-y="-13"
     inkscape:window-maximized="1"
     inkscape:current-layer="svg26" />
  <path
     d="M0 0h24v24H0z"
     fill="none"
     id="path22" />
  <path
     d="m 11.432618,2.9711606 c -4.9088022,0 -8.8927574,3.9839551 -8.8927574,8.8927564 0,4.908802 3.9839552,8.892756 8.8927574,8.892756 4.908801,0 8.892756,-3.983954 8.892756,-8.892756 0,-4.9088013 -3.983955,-8.8927564 -8.892756,-8.8927564 z m 0,16.0069624 c -3.9305992,0 -7.1142061,-3.183607 -7.1142061,-7.114206 0,-1.645159 0.5602438,-3.1569282 1.5028761,-4.3574504 l 9.96878,9.9687804 c -1.200521,0.942632 -2.712291,1.502876 -4.35745,1.502876 z m 5.61133,-2.756755 -9.9687812,-9.96878 c 1.200522,-0.9426323 2.712291,-1.5028761 4.3574512,-1.5028761 3.930599,0 7.114206,3.1836071 7.114206,7.1142051 0,1.64516 -0.560244,3.156929 -1.502876,4.357451 z"
     id="path24"
     inkscape:connector-curvature="0"
     style="fill:#999999;stroke-width:0.88927567" />
</svg>
