<?xml version="1.0" encoding="UTF-8" standalone="no"?>
<!-- Created with Inkscape (http://www.inkscape.org/) -->

<svg
   xmlns:dc="http://purl.org/dc/elements/1.1/"
   xmlns:cc="http://creativecommons.org/ns#"
   xmlns:rdf="http://www.w3.org/1999/02/22-rdf-syntax-ns#"
   xmlns:svg="http://www.w3.org/2000/svg"
   xmlns="http://www.w3.org/2000/svg"
   xmlns:sodipodi="http://sodipodi.sourceforge.net/DTD/sodipodi-0.dtd"
   xmlns:inkscape="http://www.inkscape.org/namespaces/inkscape"
   width="215"
   height="150"
   version="1.1"
   id="svg8"
   sodipodi:docname="person_3.svg"
   inkscape:version="0.92.4 (5da689c313, 2019-01-14)">
  <defs
     id="defs2" />
  <sodipodi:namedview
     id="base"
     pagecolor="#ffffff"
     bordercolor="#666666"
     borderopacity="1.0"
     inkscape:pageopacity="0.0"
     inkscape:pageshadow="2"
     inkscape:zoom="3.959798"
     inkscape:cx="88.662672"
     inkscape:cy="109.42494"
     inkscape:document-units="mm"
     inkscape:current-layer="layer1"
     showgrid="false"
     inkscape:window-width="2409"
     inkscape:window-height="1395"
     inkscape:window-x="-13"
     inkscape:window-y="-13"
     inkscape:window-maximized="1" />
  <metadata
     id="metadata5">
    <rdf:RDF>
      <cc:Work
         rdf:about="">
        <dc:format>image/svg+xml</dc:format>
        <dc:type
           rdf:resource="http://purl.org/dc/dcmitype/StillImage" />
        <dc:title />
      </cc:Work>
    </rdf:RDF>
  </metadata>
  <g
     inkscape:label="Ebene 1"
     inkscape:groupmode="layer"
     id="layer1">
    <ellipse
       id="path10"
       cx="116.26028"
       cy="44.905231"
       rx="12.000744"
       ry="11.717261"
       style="fill:#a11919;fill-opacity:1;stroke:none;stroke-width:0.26458332" />
    <path
       style="fill:#a11919;fill-opacity:1;stroke:none;stroke-width:0.33011416px;stroke-linecap:butt;stroke-linejoin:miter;stroke-opacity:1"
       d="m 95.392453,88.66629 c 0.88518,4.00874 4.489276,2.55579 11.809217,2.71311 3.28425,0.0706 6.97894,-0.0269 9.89073,0.006 2.34137,0.0268 5.17012,-5.7e-4 7.51191,-0.0958 2.34029,-0.0952 4.30666,-0.0372 6.0759,-0.14678 2.74344,-0.0571 3.81981,0.20584 6.23628,-0.66649 0.94879,-0.34999 1.59923,-0.71701 1.84557,-1.65883 0.28399,-1.08575 0.17181,-2.46457 0.17181,-2.46457 -0.0665,-0.1307 -0.53187,-3.89366 -2.46671,-7.61204 -2.12546,-4.084705 -5.22254,-9.132893 -9.13058,-12.962542 -4.02277,-3.942088 -8.24593,-6.288584 -13.77915,-5.1913 -2.67403,0.530285 -5.50994,1.995164 -8.51904,6.62052 -1.50455,2.312676 -3.25788,5.095828 -5.166717,8.348384 -1.946496,3.316728 -4.317556,7.121358 -4.47922,13.109838"
       id="path12"
       inkscape:connector-curvature="0"
       sodipodi:nodetypes="csssccscsssssc" />
    <ellipse
       id="path10-6"
       cx="158.52966"
       cy="65.742813"
       rx="12.000744"
       ry="11.717261"
       style="fill:#a11919;fill-opacity:1;stroke:none;stroke-width:0.26458332" />
    <path
       style="fill:#a11919;fill-opacity:1;stroke:none;stroke-width:0.33011416px;stroke-linecap:butt;stroke-linejoin:miter;stroke-opacity:1"
       d="m 137.66181,109.50387 c 0.88518,4.00874 4.48928,2.55579 11.80922,2.7131 3.28424,0.0706 6.97893,-0.0269 9.89073,0.006 2.34136,0.0268 5.17012,-5.2e-4 7.51191,-0.0958 2.34029,-0.0952 4.30666,-0.0372 6.0759,-0.14677 2.74343,-0.0571 3.81981,0.20583 6.23628,-0.66649 0.94879,-0.34999 1.59923,-0.71701 1.84557,-1.65884 0.28398,-1.08574 0.17181,-2.46456 0.17181,-2.46456 -0.0665,-0.13071 -0.53188,-3.89366 -2.46672,-7.61204 -2.12545,-4.08471 -5.22254,-9.13289 -9.13057,-12.96255 -4.02277,-3.94208 -8.24594,-6.28858 -13.77915,-5.19129 -2.67404,0.53028 -5.50994,1.99516 -8.51904,6.62052 -1.50455,2.31267 -3.25788,5.09582 -5.16672,8.34838 -1.94649,3.31673 -4.31755,7.12135 -4.47922,13.10984"
       id="path12-6"
       inkscape:connector-curvature="0"
       sodipodi:nodetypes="csssccscsssssc" />
    <ellipse
       id="path10-6-0"
       cx="85.769852"
       cy="73.196129"
       rx="12.000744"
       ry="11.717261"
       style="fill:#a11919;fill-opacity:1;stroke:none;stroke-width:0.26458332" />
    <path
       style="fill:#a11919;fill-opacity:1;stroke:none;stroke-width:0.33011416px;stroke-linecap:butt;stroke-linejoin:miter;stroke-opacity:1"
       d="m 64.902013,116.95719 c 0.88518,4.00873 4.48928,2.55579 11.80922,2.7131 3.28424,0.0706 6.97893,-0.0269 9.89073,0.006 2.34136,0.0268 5.17012,-5.3e-4 7.51191,-0.0958 2.34029,-0.0952 4.30666,-0.0372 6.075897,-0.14678 2.74344,-0.0571 3.81982,0.20583 6.23629,-0.66648 0.94879,-0.34999 1.59923,-0.71701 1.84557,-1.65885 0.28398,-1.08573 0.17181,-2.46456 0.17181,-2.46456 -0.0665,-0.1307 -0.53188,-3.89365 -2.46672,-7.61203 -2.12545,-4.0847 -5.22254,-9.13288 -9.130577,-12.96254 -4.02277,-3.94208 -8.24594,-6.28858 -13.77915,-5.19129 -2.67404,0.53028 -5.50994,1.99516 -8.51904,6.62052 -1.50455,2.31267 -3.25788,5.09582 -5.16672,8.34838 -1.94649,3.31672 -4.31755,7.12134 -4.47922,13.10983"
       id="path12-6-5"
       inkscape:connector-curvature="0"
       sodipodi:nodetypes="csssccscsssssc" />
    <ellipse
       id="path10-6-3"
       cx="53.452896"
       cy="45.981838"
       rx="12.000744"
       ry="11.717261"
       style="fill:#a11919;fill-opacity:1;stroke:none;stroke-width:0.26458332" />
    <path
       style="fill:#a11919;fill-opacity:1;stroke:none;stroke-width:0.33011416px;stroke-linecap:butt;stroke-linejoin:miter;stroke-opacity:1"
       d="m 32.585048,89.7429 c 0.88518,4.00874 4.489281,2.55579 11.80922,2.7131 3.28424,0.0706 6.97893,-0.0269 9.89073,0.006 2.34136,0.0268 5.17012,-5.3e-4 7.51191,-0.0958 2.34029,-0.0952 4.30666,-0.0372 6.0759,-0.14677 2.74343,-0.0571 3.81981,0.20583 6.236282,-0.66649 0.948788,-0.34999 1.599229,-0.71701 1.845569,-1.65884 0.28398,-1.08574 0.17181,-2.46456 0.17181,-2.46456 -0.0665,-0.1307 -0.531881,-3.89365 -2.466721,-7.61203 -2.125448,-4.084711 -5.222539,-9.13289 -9.13057,-12.962551 -4.02277,-3.94208 -8.24594,-6.288579 -13.77915,-5.191289 -2.67404,0.530281 -5.50994,1.99516 -8.51904,6.620521 -1.50455,2.31267 -3.25788,5.095819 -5.166719,8.348379 -1.946491,3.31672 -4.317551,7.12134 -4.479221,13.10983"
       id="path12-6-1"
       inkscape:connector-curvature="0"
       sodipodi:nodetypes="csssccscsssssc" />
  </g>
</svg>
