<svg id="Ebene_1" data-name="Ebene 1" xmlns="http://www.w3.org/2000/svg" viewBox="0 0 159.08 152.63">
  <defs>
    <style>
      .cls-1 {
        fill: #69c1ed;
      }

      .cls-2 {
        fill: #2a546b;
      }

      .cls-3 {
        fill: none;
      }
    </style>
  </defs>
  <g>
    <path class="cls-1" d="M53,87.5c0-2.9,1.72-4.81,4.72-4.81,2.64,0,4.73,1.36,4.73,5,0,4.55,2,6.18,5.17,6.18s5.18-1.63,5.18-6.36c0-5.27-2-8.63-8.54-14.35-8.35-7.36-11.08-12.54-11.08-19.81,0-10,5.18-15.8,14.9-15.8S82.63,43.8,82.63,52c0,3.18-1.73,4.82-4.73,4.82-3.18,0-4.72-2.09-4.72-4.82,0-3.36-1.82-5.36-5-5.36s-5,1.73-5,6.09c0,4.63,2.09,8,8.63,13.72,8.36,7.35,11,12.44,11,20.35,0,10.35-5.27,16.17-15.08,16.17S53,97.13,53,87.5Z" transform="translate(-51.37 -37.54)"/>
    <path class="cls-1" d="M86.17,97.68A10.16,10.16,0,0,1,86.35,96L95,44.35c.73-4.18,3.63-6.81,7.81-6.81s7,2.63,7.72,6.81L119.15,96a8.46,8.46,0,0,1,.09,1.46c0,3.09-1.64,5.08-4.55,5.08s-4.72-1.9-5.17-4.81l-1.19-8.36v.18H96.43L95.25,98c-.45,3.18-2.18,4.63-4.72,4.63C88.17,102.58,86.17,101,86.17,97.68Zm21-16.72-4.72-32.34h-.18L97.61,81Z" transform="translate(-51.37 -37.54)"/>
    <path class="cls-1" d="M124.68,97.59V43.44a4.82,4.82,0,0,1,5-5h17.44a4.55,4.55,0,1,1,0,9.09H134.68V65.24h8.9a4.55,4.55,0,0,1,0,9.09h-8.9V97.59a5,5,0,0,1-10,0Z" transform="translate(-51.37 -37.54)"/>
    <path class="cls-1" d="M155.93,97V43.44a4.82,4.82,0,0,1,5-5h18.26a4.55,4.55,0,0,1,0,9.09H165.93V64.34h9.72a4.54,4.54,0,0,1,0,9.08h-9.72V93h13.26a4.55,4.55,0,0,1,0,9.09H160.93A4.82,4.82,0,0,1,155.93,97Z" transform="translate(-51.37 -37.54)"/>
  </g>
  <g>
    <path class="cls-2" d="M51.39,182.29V110.83a6.43,6.43,0,0,1,6.67-6.66H71.5c13.81,0,19.74,6.42,19.74,19.5v3.39c0,8.72-2.66,14.17-8.6,16.59v.25c7.15,2.42,9.94,8.72,9.94,17.68v7.27c0,13.08-6.91,20.11-20.23,20.11H58.06A6.43,6.43,0,0,1,51.39,182.29Zm18.54-43.6c5,0,8-2.18,8-9V125c0-6-2.06-8.72-6.78-8.72H64.72v22.41Zm2.42,38.15c4.48,0,6.9-2.06,6.9-8.36V161.1c0-7.88-2.54-10.3-8.6-10.3H64.72v26Z" transform="translate(-51.37 -37.54)"/>
    <path class="cls-2" d="M98.75,168.85V110.1c0-4.24,2.43-6.66,6.66-6.66s6.67,2.42,6.67,6.66v59.72c0,6.05,2.54,8.23,6.78,8.23s6.78-2.18,6.78-8.23v-60c0-4.12,2.3-6.42,6.42-6.42s6.42,2.3,6.42,6.42v59c0,13.56-6.78,21.32-19.86,21.32S98.75,182.41,98.75,168.85Z" transform="translate(-51.37 -37.54)"/>
    <path class="cls-2" d="M159.07,183V152.86l-13.2-39.24a10.74,10.74,0,0,1-.61-3.76c0-3.75,2.31-6.42,6.06-6.42,4.24,0,5.69,1.94,7.15,6.66l7.75,25.2h.24l7.75-25.68c1.33-4.36,3-6.18,6.79-6.18,3.51,0,5.57,2.42,5.57,5.94a12.3,12.3,0,0,1-.61,3.39L172.4,152.86V183a6.67,6.67,0,0,1-13.33,0Z" transform="translate(-51.37 -37.54)"/>
  </g>
  <line class="cls-3" y1="64.29" x2="136.08" y2="64.29"/>
  <line class="cls-3" x1="158.61" y1="50.68" x2="159.08" y2="50.68"/>
</svg>
